<svg width="60" height="60" viewBox="0 0 60 60" fill="none" xmlns="http://www.w3.org/2000/svg">
<path d="M18.3451 46.6487L9.58406 37.5663L18.3451 28.484L21.2098 31.2504L15.1035 37.5663L21.2098 43.8823L18.3451 46.6487ZM41.6283 46.6726L38.8115 43.8557L45.1035 37.5637L38.8115 31.2717L41.6283 28.4548L50.7346 37.561L41.6283 46.6726ZM26.7531 46.3566L23.4238 44.1743L33.5124 28.7762L36.8416 30.9585L26.7531 46.3566ZM0 0H60V60H0V0ZM56.0177 3.98232H3.98232V56.0177H56.0177V3.98232ZM60 19.3805H0V0H60V19.3805ZM3.98232 15.3983H56.0177V3.98221H3.98238L3.98232 15.3983ZM14.7345 11.6814H9.69018V7.69904H14.7345V11.6814ZM25.0884 11.6814H19.7787V7.69904H25.0884V11.6814ZM35.1769 11.6814H30.1327V7.69904H35.1769V11.6814Z" fill="black"/>
</svg>
