<svg width="60" height="60" viewBox="0 0 60 60" fill="none" xmlns="http://www.w3.org/2000/svg">
<path fill-rule="evenodd" clip-rule="evenodd" d="M11.6667 56.6666C16.269 56.6666 20 52.9356 20 48.3333C20 43.731 16.269 40 11.6667 40C7.06433 40 3.33333 43.731 3.33333 48.3333C3.33333 52.9356 7.06433 56.6666 11.6667 56.6666ZM11.6667 60C18.11 60 23.3333 54.7766 23.3333 48.3333C23.3333 41.89 18.11 36.6666 11.6667 36.6666C5.22335 36.6666 0 41.89 0 48.3333C0 54.7766 5.22335 60 11.6667 60Z" fill="#333333"/>
<path d="M14.5833 48.3333C14.5833 49.9441 13.2775 51.25 11.6667 51.25C10.0558 51.25 8.75 49.9441 8.75 48.3333C8.75 46.7225 10.0558 45.4166 11.6667 45.4166C13.2775 45.4166 14.5833 46.7225 14.5833 48.3333Z" fill="#333333"/>
<path fill-rule="evenodd" clip-rule="evenodd" d="M48.3334 56.6666C52.9357 56.6666 56.6667 52.9356 56.6667 48.3333C56.6667 43.731 52.9357 40 48.3334 40C43.7311 40 40.0001 43.731 40.0001 48.3333C40.0001 52.9356 43.7311 56.6666 48.3334 56.6666ZM48.3334 60C54.7767 60 60.0001 54.7766 60.0001 48.3333C60.0001 41.89 54.7767 36.6666 48.3334 36.6666C41.8901 36.6666 36.6667 41.89 36.6667 48.3333C36.6667 54.7766 41.8901 60 48.3334 60Z" fill="#333333"/>
<path d="M51.2498 48.3333C51.2498 49.9441 49.944 51.25 48.3332 51.25C46.7223 51.25 45.4165 49.9441 45.4165 48.3333C45.4165 46.7225 46.7223 45.4166 48.3332 45.4166C49.944 45.4166 51.2498 46.7225 51.2498 48.3333Z" fill="#333333"/>
<path fill-rule="evenodd" clip-rule="evenodd" d="M48.3334 20C52.9357 20 56.6667 16.269 56.6667 11.6667C56.6667 7.06433 52.9357 3.33333 48.3334 3.33333C43.7311 3.33333 40.0001 7.06433 40.0001 11.6667C40.0001 16.269 43.7311 20 48.3334 20ZM48.3334 23.3333C54.7767 23.3333 60.0001 18.11 60.0001 11.6667C60.0001 5.22335 54.7767 0 48.3334 0C41.8901 0 36.6667 5.22335 36.6667 11.6667C36.6667 18.11 41.8901 23.3333 48.3334 23.3333Z" fill="#333333"/>
<path d="M51.2498 11.6668C51.2498 13.2776 49.944 14.5835 48.3332 14.5835C46.7223 14.5835 45.4165 13.2776 45.4165 11.6668C45.4165 10.056 46.7223 8.75012 48.3332 8.75012C49.944 8.75012 51.2498 10.056 51.2498 11.6668Z" fill="#333333"/>
<path fill-rule="evenodd" clip-rule="evenodd" d="M11.6667 20C16.269 20 20 16.269 20 11.6667C20 7.06433 16.269 3.33333 11.6667 3.33333C7.06433 3.33333 3.33333 7.06433 3.33333 11.6667C3.33333 16.269 7.06433 20 11.6667 20ZM11.6667 23.3333C18.11 23.3333 23.3333 18.11 23.3333 11.6667C23.3333 5.22335 18.11 0 11.6667 0C5.22335 0 0 5.22335 0 11.6667C0 18.11 5.22335 23.3333 11.6667 23.3333Z" fill="#333333"/>
<path d="M14.5833 11.6668C14.5833 13.2776 13.2775 14.5835 11.6667 14.5835C10.0558 14.5835 8.75 13.2776 8.75 11.6668C8.75 10.056 10.0558 8.75012 11.6667 8.75012C13.2775 8.75012 14.5833 10.056 14.5833 11.6668Z" fill="#333333"/>
<path d="M11.6663 48.3334L21.1996 29.6259L12.3996 11.6667L29.9996 20.6464L47.5996 11.6667L38.7996 29.6259L48.3329 48.3334L29.9996 38.6056L11.6663 48.3334Z" fill="#333333"/>
</svg>
